<svg width="2521" height="2911" viewBox="0 0 2521 2911" fill="none" xmlns="http://www.w3.org/2000/svg">
<g clip-path="url(#clip0_13_70)">
<path d="M2521 727.6V2181.7L1260.5 2911V1454.5L2521 727.6Z" fill="#2D5779"/>
<path d="M0 727.6V2181.7L1260.5 2911V1454.5L0 727.6Z" fill="#1B3A54"/>
<path d="M0 727.6L1260.5 0L2521 727.6L1260.5 1454.5L0 727.6Z" fill="#21415F"/>
<path d="M459.967 1822.48C443.804 1813.14 429.719 1801.53 417.713 1787.66C405.937 1773.66 396.816 1758.39 390.351 1741.86C384.117 1725.19 381 1708.05 381 1690.45V1563.25C381 1545.65 384.117 1532.25 390.351 1523.06C396.816 1513.72 405.937 1508.99 417.713 1508.86C429.719 1508.6 443.804 1513.14 459.967 1522.48C476.361 1531.95 490.445 1543.69 502.221 1557.69C513.997 1571.43 523.002 1586.63 529.236 1603.3C535.701 1619.84 538.934 1636.77 538.934 1654.1V1781.7C538.934 1799.3 535.701 1812.77 529.236 1822.1C523.002 1831.3 513.997 1836.09 502.221 1836.49C490.445 1836.62 476.361 1831.95 459.967 1822.48ZM459.967 1778.48C471.743 1785.28 480.632 1786.82 486.636 1783.09C492.639 1779.09 495.641 1770.29 495.641 1756.69V1629.49C495.641 1615.62 492.639 1603.35 486.636 1592.69C480.632 1582.02 471.743 1573.28 459.967 1566.48C448.191 1559.67 439.302 1558.14 433.298 1561.87C427.295 1565.6 424.293 1574.4 424.293 1588.27V1715.47C424.293 1729.07 427.295 1741.33 433.298 1752.27C439.532 1763.07 448.422 1771.81 459.967 1778.48Z" fill="url(#paint0_linear_13_70)"/>
<path d="M590.404 1893.84V1601.84L674.566 1650.47C691.422 1660.21 706.084 1672.41 718.552 1687.08C731.251 1701.89 741.065 1718.09 747.991 1735.69C754.918 1753.03 758.382 1770.76 758.382 1788.9C758.382 1806.76 754.803 1820.43 747.645 1829.89C740.718 1839.49 731.021 1844.42 718.552 1844.68C706.084 1844.94 691.422 1840.21 674.566 1830.47L633.697 1806.86V1918.86L590.404 1893.84ZM633.697 1761.66L674.566 1785.27C686.573 1792.21 696.155 1793.74 703.313 1789.88C710.702 1785.88 714.396 1777.08 714.396 1763.48C714.396 1749.61 710.702 1736.55 703.313 1724.28C696.155 1712.14 686.573 1702.61 674.566 1695.67L633.697 1672.06V1761.66Z" fill="url(#paint1_linear_13_70)"/>
<path d="M876.004 2062.85C858.687 2052.85 843.679 2040.84 830.979 2026.84C818.28 2012.84 808.467 1997.7 801.54 1981.43C794.844 1965.03 791.38 1948.36 791.149 1931.43L834.443 1956.44C834.443 1968.44 838.137 1980.04 845.526 1991.24C853.145 2002.31 863.42 2011.58 876.351 2019.05C888.819 2026.26 898.517 2028.53 905.444 2025.86C912.601 2023.33 916.18 2016.2 916.18 2004.47C916.18 1994.6 913.641 1984.6 908.561 1974.47C903.712 1964.2 896.67 1955.06 887.434 1947.06L858.341 1921.05C838.483 1903.71 823.129 1884.3 812.277 1862.83C801.655 1841.5 796.345 1820.03 796.345 1798.43C796.345 1781.9 799.577 1769.36 806.042 1760.83C812.507 1752.3 821.628 1748.1 833.404 1748.24C845.41 1748.51 859.495 1753.32 875.658 1762.65C900.133 1776.8 919.528 1795.34 933.844 1818.27C948.16 1840.94 955.433 1864.61 955.664 1889.28L912.371 1864.27C912.371 1852.8 909.138 1842 902.673 1831.86C896.208 1821.46 887.087 1812.86 875.312 1806.05C863.998 1799.52 855.223 1797.51 848.989 1800.05C842.755 1802.58 839.638 1809.44 839.638 1820.64C839.638 1830.78 841.947 1840.78 846.565 1850.65C851.414 1860.38 858.341 1869.32 867.346 1877.45L897.478 1904.46C917.566 1921.93 932.92 1941.34 943.542 1962.68C954.163 1983.75 959.474 2005.35 959.474 2027.48C959.474 2044.01 956.01 2056.68 949.083 2065.48C942.156 2074.01 932.459 2078.14 919.99 2077.87C907.522 2077.6 892.86 2072.59 876.004 2062.85Z" fill="url(#paint2_linear_13_70)"/>
<path d="M1005.4 2133.62V1841.62L1085.41 1887.84C1102.26 1897.58 1116.81 1909.59 1129.05 1923.86C1141.52 1938.26 1151.21 1954 1158.14 1971.07C1165.07 1987.87 1168.53 2005.07 1168.53 2022.67C1168.53 2041.87 1164.26 2056.34 1155.72 2066.07C1147.4 2075.93 1136.09 2079.79 1121.77 2077.66L1171.99 2229.87L1123.51 2201.86L1079.52 2060.44L1048.7 2042.63V2158.63L1005.4 2133.62ZM1048.7 1998.63L1085.41 2019.84C1097.65 2026.91 1107.23 2028.58 1114.16 2024.85C1121.08 2021.12 1124.55 2012.46 1124.55 1998.86C1124.55 1984.99 1121.08 1972.19 1114.16 1960.45C1107.23 1948.45 1097.65 1938.91 1085.41 1931.84L1048.7 1910.63V1998.63Z" fill="url(#paint3_linear_13_70)"/>
<path d="M1357.4 2077.4C1348.48 2082.75 1341.28 2084.14 1335.79 2081.56C1330.07 2079.13 1327.22 2073.11 1327.22 2063.51C1327.22 2053.91 1330.07 2044.59 1335.79 2035.56C1341.28 2026.4 1348.48 2019.15 1357.4 2013.8C1366.55 2008.31 1373.86 2006.85 1379.35 2009.43C1384.84 2011.73 1387.58 2017.69 1387.58 2027.29C1387.58 2036.89 1384.84 2046.27 1379.35 2055.43C1373.86 2064.59 1366.55 2071.91 1357.4 2077.4ZM1357.4 2241.8C1348.48 2247.15 1341.28 2248.54 1335.79 2245.96C1330.07 2243.53 1327.22 2237.64 1327.22 2228.31C1327.22 2218.44 1330.07 2208.99 1335.79 2199.96C1341.28 2190.8 1348.48 2183.55 1357.4 2178.2C1366.55 2172.71 1373.86 2171.25 1379.35 2173.83C1384.84 2176.13 1387.58 2182.22 1387.58 2192.09C1387.58 2201.42 1384.84 2210.67 1379.35 2219.83C1373.86 2228.99 1366.55 2236.31 1357.4 2241.8ZM1508.32 1986.85C1499.4 1992.2 1492.08 1993.65 1486.37 1991.22C1480.88 1988.64 1478.13 1982.56 1478.13 1972.96C1478.13 1963.36 1480.88 1954.11 1486.37 1945.22C1492.08 1935.92 1499.4 1928.6 1508.32 1923.25C1517.46 1917.76 1524.78 1916.3 1530.27 1918.88C1535.76 1921.18 1538.5 1927.14 1538.5 1936.74C1538.5 1946.34 1535.76 1955.72 1530.27 1964.88C1524.78 1974.03 1517.46 1981.36 1508.32 1986.85ZM1508.32 2151.25C1499.4 2156.6 1492.08 2158.05 1486.37 2155.62C1480.88 2153.04 1478.13 2147.09 1478.13 2137.76C1478.13 2127.89 1480.88 2118.51 1486.37 2109.62C1492.08 2100.32 1499.4 2093 1508.32 2087.65C1517.46 2082.16 1524.78 2080.7 1530.27 2083.28C1535.76 2085.58 1538.5 2091.67 1538.5 2101.54C1538.5 2110.87 1535.76 2120.12 1530.27 2129.28C1524.78 2138.43 1517.46 2145.76 1508.32 2151.25Z" fill="#F1F1F1"/>
<path d="M1741.42 2010.98C1725.87 2020.31 1712.38 2024.94 1700.95 2024.87C1689.52 2024.79 1680.71 2020.21 1674.54 2011.11C1668.36 2002.02 1665.28 1988.8 1665.28 1971.47V1914.67C1665.28 1897.07 1668.36 1880.15 1674.54 1863.91C1680.71 1847.41 1689.52 1832.26 1700.95 1818.47C1712.38 1804.67 1725.87 1793.11 1741.42 1783.78C1756.97 1774.45 1770.46 1769.83 1781.9 1769.9C1793.33 1769.97 1802.13 1774.56 1808.31 1783.65C1814.48 1792.48 1817.57 1805.7 1817.57 1823.3V1880.1C1817.57 1897.43 1814.48 1914.35 1808.31 1930.85C1802.13 1947.36 1793.33 1962.51 1781.9 1976.3C1770.46 1990.09 1756.97 2001.65 1741.42 2010.98ZM1741.42 1972.98C1754 1965.44 1763.72 1955.61 1770.58 1943.49C1777.44 1931.11 1780.87 1917.32 1780.87 1902.12V1845.32C1780.87 1829.85 1777.44 1820.18 1770.58 1816.29C1763.72 1812.41 1754 1814.24 1741.42 1821.78C1729.07 1829.19 1719.36 1839.02 1712.27 1851.28C1705.41 1863.39 1701.98 1877.18 1701.98 1892.65V1949.45C1701.98 1964.65 1705.41 1974.33 1712.27 1978.48C1719.36 1982.22 1729.07 1980.39 1741.42 1972.98Z" fill="#F1F1F1"/>
<path d="M1873 2000.44V1708.44L1909.7 1686.42V1728.42L1917.59 1723.68L1909.7 1738.42C1909.7 1721.08 1914.27 1704.74 1923.42 1689.39C1932.8 1673.63 1945.26 1661.08 1960.81 1651.75C1979.79 1640.37 1994.88 1638.78 2006.08 1646.99C2017.52 1654.79 2023.23 1671.5 2023.23 1697.1V1759.1C2023.23 1776.16 2020.6 1792.54 2015.34 1808.23C2010.31 1823.52 2003.11 1837.44 1993.73 1850C1984.59 1862.15 1973.61 1872.07 1960.81 1879.75C1945.49 1888.95 1933.14 1891.42 1923.76 1887.18C1914.39 1882.67 1909.7 1871.75 1909.7 1854.42L1917.59 1859.68L1909.01 1864.83L1910.04 1915.41V1978.21L1873 2000.44ZM1948.12 1849.77C1960.23 1842.5 1969.61 1832.87 1976.24 1820.89C1983.1 1808.51 1986.53 1794.59 1986.53 1779.12V1721.52C1986.53 1706.05 1983.1 1696.38 1976.24 1692.49C1969.61 1688.2 1960.23 1689.7 1948.12 1696.97C1936.45 1703.97 1927.19 1713.79 1920.33 1726.44C1913.47 1738.82 1910.04 1752.48 1910.04 1767.41V1825.01C1910.04 1839.94 1913.47 1849.62 1920.33 1854.04C1927.19 1858.19 1936.45 1856.77 1948.12 1849.77Z" fill="#F1F1F1"/>
<path d="M2146.23 1768.1C2132.74 1776.19 2120.85 1780.79 2110.56 1781.9C2100.5 1782.87 2092.5 1780.74 2086.55 1775.51C2080.84 1769.87 2077.52 1761.19 2076.61 1749.47L2113.65 1727.25C2114.56 1733.9 2117.88 1737.78 2123.6 1738.88C2129.31 1739.72 2136.86 1737.32 2146.23 1731.7L2160.98 1722.85C2172.19 1716.12 2180.65 1708.38 2186.36 1699.62C2192.08 1690.86 2194.94 1682.07 2194.94 1673.27C2194.94 1664.74 2192.31 1659.65 2187.05 1658.01C2182.02 1655.96 2174.47 1657.15 2164.41 1661.59L2140.06 1671.8C2119.94 1680.14 2105.07 1682.39 2095.47 1678.56C2086.1 1674.31 2081.41 1662.59 2081.41 1643.39C2081.41 1623.13 2087.01 1604.16 2098.21 1586.51C2109.65 1568.45 2126.45 1552.76 2148.63 1539.46L2161.67 1531.64C2181.33 1519.84 2197 1515.77 2208.66 1519.44C2220.55 1522.71 2227.3 1532.66 2228.9 1549.3L2191.85 1571.53C2190.94 1565.67 2187.85 1562.33 2182.59 1561.48C2177.56 1560.5 2170.59 1562.69 2161.67 1568.04L2148.63 1575.86C2137.89 1582.3 2130 1589.44 2124.97 1597.26C2120.17 1604.67 2117.77 1612.91 2117.77 1621.98C2117.77 1629.98 2119.94 1634.67 2124.28 1636.07C2128.63 1637.46 2135.37 1636.21 2144.52 1632.33L2169.56 1622.1C2190.82 1612.81 2206.37 1610.41 2216.21 1614.91C2226.27 1619.01 2231.3 1630.79 2231.3 1650.26C2231.3 1671.33 2225.35 1691.29 2213.46 1710.16C2201.8 1728.89 2184.31 1745.25 2160.98 1759.25L2146.23 1768.1Z" fill="#F1F1F1"/>
<path d="M2290.5 1677.94V1457.94L2326.17 1436.53V1478.53L2335.09 1473.18L2323.77 1505.97C2323.77 1482.24 2328.23 1461.7 2337.15 1444.35C2346.07 1426.73 2359.33 1412.64 2376.94 1402.08C2397.06 1390 2412.95 1387.8 2424.61 1395.47C2436.5 1402.73 2442.45 1419.03 2442.45 1444.37V1459.17L2404.38 1482.01V1470.81C2404.38 1455.08 2400.95 1445.14 2394.09 1440.99C2387.46 1436.43 2378.08 1437.79 2365.96 1445.06C2353.84 1452.33 2344.35 1462.29 2337.49 1474.94C2330.86 1487.45 2327.55 1501.44 2327.55 1516.91V1655.71L2290.5 1677.94Z" fill="#F1F1F1"/>
</g>
<defs>
<linearGradient id="paint0_linear_13_70" x1="-277.439" y1="1968.95" x2="820.28" y2="3352.43" gradientUnits="userSpaceOnUse">
<stop stop-color="#999999"/>
<stop offset="1" stop-color="#D2D1D1"/>
</linearGradient>
<linearGradient id="paint1_linear_13_70" x1="-277.439" y1="1968.95" x2="820.28" y2="3352.43" gradientUnits="userSpaceOnUse">
<stop stop-color="#999999"/>
<stop offset="1" stop-color="#D2D1D1"/>
</linearGradient>
<linearGradient id="paint2_linear_13_70" x1="-277.439" y1="1968.95" x2="820.28" y2="3352.43" gradientUnits="userSpaceOnUse">
<stop stop-color="#999999"/>
<stop offset="1" stop-color="#D2D1D1"/>
</linearGradient>
<linearGradient id="paint3_linear_13_70" x1="-277.439" y1="1968.95" x2="820.28" y2="3352.43" gradientUnits="userSpaceOnUse">
<stop stop-color="#999999"/>
<stop offset="1" stop-color="#D2D1D1"/>
</linearGradient>
<clipPath id="clip0_13_70">
<rect width="2521" height="2911" fill="white"/>
</clipPath>
</defs>
</svg>
