<svg width="2521" height="2912" viewBox="0 0 2521 2912" fill="none" xmlns="http://www.w3.org/2000/svg">
<g clip-path="url(#clip0_15_1511)">
<path d="M2418.05 673.231L2418.06 673.237L2517.5 730.228V2181.88L2418.75 2238.87L2420.5 2241.9L2418.75 2238.87L1453.95 2796.07L1453.95 2796.07L1260.5 2907.56L1067.05 2796.07L1067.05 2796.07L102.25 2238.87L100.5 2241.9L102.249 2238.87L3.5 2181.88V730.221L102.249 673.231L102.25 673.231L1055.15 122.931L1260.2 4.54146L1465.25 122.931L2418.05 673.231Z" fill="#1E1E1E" stroke="#5BD0AF" stroke-width="7"/>
<path d="M428.981 1690.25C412.818 1680.91 398.733 1669.3 386.726 1655.43C374.951 1641.43 365.83 1626.16 359.365 1609.63C353.131 1592.96 350.014 1575.82 350.014 1558.22V1431.02C350.014 1413.42 353.131 1400.02 359.365 1390.83C365.83 1381.49 374.951 1376.76 386.726 1376.63C398.733 1376.37 412.818 1380.91 428.981 1390.25C445.374 1399.72 459.459 1411.46 471.235 1425.46C483.011 1439.2 492.016 1454.4 498.25 1471.07C504.715 1487.61 507.947 1504.54 507.947 1521.87V1649.47C507.947 1667.07 504.715 1680.54 498.25 1689.87C492.016 1699.07 483.011 1703.87 471.235 1704.26C459.459 1704.39 445.374 1699.72 428.981 1690.25ZM428.981 1646.25C440.756 1653.05 449.646 1654.59 455.649 1650.86C461.653 1646.86 464.654 1638.06 464.654 1624.46V1497.26C464.654 1483.39 461.653 1471.13 455.649 1460.46C449.646 1449.79 440.756 1441.05 428.981 1434.25C417.205 1427.44 408.315 1425.91 402.312 1429.64C396.309 1433.37 393.307 1442.17 393.307 1456.04V1583.24C393.307 1596.84 396.309 1609.1 402.312 1620.04C408.546 1630.84 417.436 1639.58 428.981 1646.25Z" fill="url(#paint0_linear_15_1511)"/>
<path d="M559.418 1761.61V1469.61L643.58 1518.24C660.435 1527.98 675.097 1540.18 687.566 1554.85C700.265 1569.66 710.078 1585.86 717.005 1603.46C723.932 1620.8 727.396 1638.53 727.396 1656.67C727.396 1674.53 723.817 1688.2 716.659 1697.66C709.732 1707.26 700.034 1712.19 687.566 1712.45C675.097 1712.72 660.435 1707.98 643.58 1698.24L602.711 1674.63V1786.63L559.418 1761.61ZM602.711 1629.43L643.58 1653.04C655.586 1659.98 665.169 1661.51 672.327 1657.65C679.715 1653.65 683.41 1644.85 683.41 1631.25C683.41 1617.38 679.715 1604.32 672.327 1592.05C665.169 1579.91 655.586 1570.38 643.58 1563.44L602.711 1539.83V1629.43Z" fill="url(#paint1_linear_15_1511)"/>
<path d="M845.018 1930.63C827.701 1920.62 812.692 1908.61 799.993 1894.61C787.294 1880.61 777.48 1865.47 770.553 1849.2C763.857 1832.8 760.394 1816.13 760.163 1799.2L803.456 1824.21C803.456 1836.21 807.151 1847.81 814.539 1859.02C822.159 1870.08 832.434 1879.35 845.364 1886.83C857.833 1894.03 867.53 1896.3 874.457 1893.63C881.615 1891.1 885.194 1883.97 885.194 1872.24C885.194 1862.37 882.654 1852.37 877.574 1842.24C872.726 1831.97 865.683 1822.83 856.447 1814.83L827.354 1788.82C807.497 1771.48 792.142 1752.07 781.29 1730.6C770.669 1709.27 765.358 1687.8 765.358 1666.2C765.358 1649.67 768.591 1637.13 775.056 1628.6C781.521 1620.07 790.642 1615.87 802.417 1616.01C814.424 1616.28 828.509 1621.09 844.672 1630.43C869.147 1644.57 888.542 1663.11 902.858 1686.04C917.173 1708.71 924.447 1732.38 924.677 1757.05L881.384 1732.04C881.384 1720.57 878.152 1709.77 871.687 1699.63C865.221 1689.23 856.101 1680.63 844.325 1673.82C833.011 1667.29 824.237 1665.29 818.003 1667.82C811.769 1670.35 808.652 1677.21 808.652 1688.41C808.652 1698.55 810.961 1708.55 815.578 1718.42C820.427 1728.15 827.354 1737.09 836.359 1745.22L866.491 1772.23C886.579 1789.71 901.934 1809.11 912.555 1830.45C923.177 1851.52 928.487 1873.12 928.487 1895.25C928.487 1911.79 925.024 1924.45 918.097 1933.25C911.17 1941.78 901.472 1945.91 889.004 1945.64C876.535 1945.37 861.873 1940.36 845.018 1930.63Z" fill="url(#paint2_linear_15_1511)"/>
<path d="M974.416 2001.39V1709.39L1054.42 1755.61C1071.28 1765.35 1085.82 1777.36 1098.06 1791.63C1110.53 1806.03 1120.23 1821.77 1127.15 1838.84C1134.08 1855.64 1137.54 1872.84 1137.54 1890.44C1137.54 1909.64 1133.27 1924.11 1124.73 1933.84C1116.42 1943.7 1105.1 1947.56 1090.79 1945.43L1141.01 2097.64L1092.52 2069.63L1048.53 1928.21L1017.71 1910.4V2026.4L974.416 2001.39ZM1017.71 1866.4L1054.42 1887.61C1066.66 1894.68 1076.24 1896.35 1083.17 1892.62C1090.1 1888.89 1093.56 1880.23 1093.56 1866.63C1093.56 1852.76 1090.1 1839.96 1083.17 1828.22C1076.24 1816.22 1066.66 1806.68 1054.42 1799.61L1017.71 1778.4V1866.4Z" fill="url(#paint3_linear_15_1511)"/>
<path d="M1326.41 1945.17C1317.5 1950.52 1310.29 1951.91 1304.8 1949.33C1299.09 1946.9 1296.23 1940.88 1296.23 1931.28C1296.23 1921.68 1299.09 1912.36 1304.8 1903.33C1310.29 1894.17 1317.5 1886.92 1326.41 1881.57C1335.56 1876.08 1342.88 1874.62 1348.36 1877.2C1353.85 1879.5 1356.6 1885.46 1356.6 1895.06C1356.6 1904.66 1353.85 1914.04 1348.36 1923.2C1342.88 1932.36 1335.56 1939.68 1326.41 1945.17ZM1326.41 2109.57C1317.5 2114.92 1310.29 2116.31 1304.8 2113.73C1299.09 2111.3 1296.23 2105.41 1296.23 2096.08C1296.23 2086.21 1299.09 2076.76 1304.8 2067.73C1310.29 2058.57 1317.5 2051.32 1326.41 2045.97C1335.56 2040.48 1342.88 2039.02 1348.36 2041.6C1353.85 2043.9 1356.6 2049.99 1356.6 2059.86C1356.6 2069.19 1353.85 2078.44 1348.36 2087.6C1342.88 2096.76 1335.56 2104.08 1326.41 2109.57ZM1477.33 1854.62C1468.41 1859.97 1461.1 1861.42 1455.38 1858.99C1449.89 1856.41 1447.15 1850.33 1447.15 1840.73C1447.15 1831.13 1449.89 1821.88 1455.38 1812.99C1461.1 1803.69 1468.41 1796.37 1477.33 1791.02C1486.48 1785.53 1493.8 1784.07 1499.28 1786.65C1504.77 1788.95 1507.52 1794.91 1507.52 1804.51C1507.52 1814.11 1504.77 1823.49 1499.28 1832.65C1493.8 1841.81 1486.48 1849.13 1477.33 1854.62ZM1477.33 2019.02C1468.41 2024.37 1461.1 2025.82 1455.38 2023.39C1449.89 2020.81 1447.15 2014.86 1447.15 2005.53C1447.15 1995.66 1449.89 1986.28 1455.38 1977.39C1461.1 1968.09 1468.41 1960.77 1477.33 1955.42C1486.48 1949.93 1493.8 1948.47 1499.28 1951.05C1504.77 1953.35 1507.52 1959.44 1507.52 1969.31C1507.52 1978.64 1504.77 1987.89 1499.28 1997.05C1493.8 2006.21 1486.48 2013.53 1477.33 2019.02Z" fill="#5BD0AF"/>
<path d="M1710.44 1878.75C1694.89 1888.08 1681.4 1892.71 1669.96 1892.64C1658.53 1892.57 1649.73 1887.98 1643.55 1878.89C1637.38 1869.79 1634.29 1856.57 1634.29 1839.24V1782.44C1634.29 1764.84 1637.38 1747.92 1643.55 1731.69C1649.73 1715.18 1658.53 1700.03 1669.96 1686.24C1681.4 1672.45 1694.89 1660.88 1710.44 1651.55C1725.99 1642.22 1739.48 1637.6 1750.91 1637.67C1762.34 1637.74 1771.15 1642.33 1777.32 1651.42C1783.49 1660.25 1786.58 1673.47 1786.58 1691.07V1747.87C1786.58 1765.2 1783.49 1782.12 1777.32 1798.62C1771.15 1815.13 1762.34 1830.28 1750.91 1844.07C1739.48 1857.86 1725.99 1869.42 1710.44 1878.75ZM1710.44 1840.75C1723.01 1833.21 1732.73 1823.38 1739.59 1811.26C1746.45 1798.88 1749.88 1785.09 1749.88 1769.89V1713.09C1749.88 1697.62 1746.45 1687.95 1739.59 1684.06C1732.73 1680.18 1723.01 1682.01 1710.44 1689.55C1698.09 1696.96 1688.37 1706.79 1681.28 1719.05C1674.42 1731.16 1670.99 1744.95 1670.99 1760.42V1817.22C1670.99 1832.42 1674.42 1842.1 1681.28 1846.25C1688.37 1849.99 1698.09 1848.16 1710.44 1840.75Z" fill="#5BD0AF"/>
<path d="M1842.01 1868.21V1576.21L1878.71 1554.19V1596.19L1886.6 1591.45L1878.71 1606.19C1878.71 1588.85 1883.29 1572.51 1892.43 1557.16C1901.81 1541.4 1914.27 1528.85 1929.82 1519.52C1948.8 1508.14 1963.89 1506.55 1975.1 1514.76C1986.53 1522.57 1992.25 1539.27 1992.25 1564.87V1626.87C1992.25 1643.94 1989.62 1660.31 1984.36 1676C1979.33 1691.29 1972.12 1705.21 1962.75 1717.77C1953.6 1729.92 1942.63 1739.84 1929.82 1747.52C1914.5 1756.72 1902.15 1759.19 1892.78 1754.95C1883.4 1750.44 1878.71 1739.52 1878.71 1722.19L1886.6 1727.45L1878.03 1732.6L1879.06 1783.18V1845.98L1842.01 1868.21ZM1917.13 1717.54C1929.25 1710.27 1938.62 1700.64 1945.26 1688.66C1952.11 1676.28 1955.54 1662.36 1955.54 1646.89V1589.29C1955.54 1573.82 1952.11 1564.15 1945.26 1560.26C1938.62 1555.98 1929.25 1557.47 1917.13 1564.74C1905.47 1571.74 1896.21 1581.56 1889.35 1594.21C1882.49 1606.59 1879.06 1620.25 1879.06 1635.18V1692.78C1879.06 1707.72 1882.49 1717.39 1889.35 1721.81C1896.21 1725.96 1905.47 1724.54 1917.13 1717.54Z" fill="#5BD0AF"/>
<path d="M2115.25 1635.87C2101.76 1643.96 2089.87 1648.56 2079.58 1649.67C2069.51 1650.64 2061.51 1648.51 2055.57 1643.28C2049.85 1637.64 2046.53 1628.96 2045.62 1617.24L2082.66 1595.02C2083.58 1601.67 2086.89 1605.55 2092.61 1606.65C2098.33 1607.49 2105.87 1605.09 2115.25 1599.47L2130 1590.62C2141.2 1583.9 2149.66 1576.15 2155.38 1567.39C2161.09 1558.63 2163.95 1549.84 2163.95 1541.04C2163.95 1532.51 2161.32 1527.42 2156.06 1525.78C2151.03 1523.73 2143.49 1524.92 2133.43 1529.36L2109.07 1539.57C2088.95 1547.91 2074.09 1550.16 2064.48 1546.33C2055.11 1542.08 2050.42 1530.36 2050.42 1511.16C2050.42 1490.9 2056.02 1471.94 2067.23 1454.28C2078.66 1436.22 2095.47 1420.54 2117.65 1407.23L2130.68 1399.41C2150.35 1387.61 2166.01 1383.54 2177.67 1387.21C2189.56 1390.48 2196.31 1400.43 2197.91 1417.07L2160.87 1439.3C2159.95 1433.45 2156.86 1430.1 2151.61 1429.25C2146.57 1428.27 2139.6 1430.46 2130.68 1435.81L2117.65 1443.63C2106.9 1450.08 2099.01 1457.21 2093.98 1465.03C2089.18 1472.44 2086.78 1480.68 2086.78 1489.75C2086.78 1497.75 2088.95 1502.45 2093.3 1503.84C2097.64 1505.23 2104.39 1503.98 2113.53 1500.1L2138.57 1489.87C2159.84 1480.58 2175.39 1478.18 2185.22 1482.68C2195.28 1486.78 2200.31 1498.56 2200.31 1518.03C2200.31 1539.1 2194.37 1559.06 2182.48 1577.93C2170.81 1596.66 2153.32 1613.02 2130 1627.02L2115.25 1635.87Z" fill="#5BD0AF"/>
<path d="M2259.52 1545.71V1325.71L2295.19 1304.3V1346.3L2304.11 1340.95L2292.79 1373.74C2292.79 1350.01 2297.25 1329.47 2306.16 1312.12C2315.08 1294.5 2328.34 1280.41 2345.95 1269.85C2366.07 1257.77 2381.97 1255.57 2393.63 1263.24C2405.52 1270.51 2411.46 1286.8 2411.46 1312.14V1326.94L2373.39 1349.78V1338.58C2373.39 1322.85 2369.96 1312.91 2363.1 1308.76C2356.47 1304.2 2347.09 1305.56 2334.97 1312.83C2322.86 1320.1 2313.37 1330.06 2306.51 1342.71C2299.87 1355.22 2296.56 1369.21 2296.56 1384.68V1523.48L2259.52 1545.71Z" fill="#5BD0AF"/>
</g>
<defs>
<linearGradient id="paint0_linear_15_1511" x1="-308.426" y1="1836.72" x2="789.293" y2="3220.2" gradientUnits="userSpaceOnUse">
<stop stop-color="#42967E"/>
<stop offset="1" stop-color="#5BD0AF"/>
</linearGradient>
<linearGradient id="paint1_linear_15_1511" x1="-308.426" y1="1836.72" x2="789.293" y2="3220.2" gradientUnits="userSpaceOnUse">
<stop stop-color="#42967E"/>
<stop offset="1" stop-color="#5BD0AF"/>
</linearGradient>
<linearGradient id="paint2_linear_15_1511" x1="-308.426" y1="1836.72" x2="789.293" y2="3220.2" gradientUnits="userSpaceOnUse">
<stop stop-color="#42967E"/>
<stop offset="1" stop-color="#5BD0AF"/>
</linearGradient>
<linearGradient id="paint3_linear_15_1511" x1="-308.426" y1="1836.72" x2="789.293" y2="3220.2" gradientUnits="userSpaceOnUse">
<stop stop-color="#42967E"/>
<stop offset="1" stop-color="#5BD0AF"/>
</linearGradient>
<clipPath id="clip0_15_1511">
<rect width="2521" height="2911" fill="white" transform="translate(0 0.5)"/>
</clipPath>
</defs>
</svg>
